<?xml version="1.0" encoding="utf-8"?>
<!-- Generator: Adobe Illustrator 22.1.0, SVG Export Plug-In . SVG Version: 6.00 Build 0)  -->
<svg version="1.2" baseProfile="tiny" id="Laag_1" xmlns="http://www.w3.org/2000/svg" xmlns:xlink="http://www.w3.org/1999/xlink"
	 x="0px" y="0px" width="217.5px" height="53.9px" viewBox="0 0 217.5 53.9" xml:space="preserve">
<g>
	<path fill="#6F3B8D" d="M147.7,40.3c-0.6,1.1-0.5,2.7,0.3,3.6c0.8,0.9,2,0.7,2.6-0.5c0.6-1.1,0.5-2.7-0.3-3.6
		C149.5,38.9,148.4,39.1,147.7,40.3z"/>
	<path fill="#6F3B8D" d="M154,44.7c-0.6,1.6,0,3.5,1.2,4.2c1.2,0.7,2.7,0,3.3-1.5c0.6-1.6,0-3.5-1.2-4.2
		C156,42.4,154.5,43.1,154,44.7z"/>
	<path fill="#6F3B8D" d="M162.3,48.3c-0.3,2.2,0.9,4.2,2.7,4.6c1.8,0.4,3.4-1.1,3.7-3.3c0.3-2.2-0.9-4.2-2.7-4.6
		C164.3,44.7,162.6,46.1,162.3,48.3z"/>
	<path fill="#6F3B8D" d="M173.3,49.7c0.4,2.7,2.6,4.5,4.9,4.1c2.3-0.4,3.9-3,3.5-5.7c-0.4-2.7-2.6-4.5-4.9-4.1
		C174.5,44.5,172.9,47,173.3,49.7z"/>
	<path fill="#6F3B8D" d="M186.1,47.1c1.6,2.9,5.1,3.8,7.7,2c2.6-1.8,3.4-5.6,1.8-8.5c-1.6-2.9-5.1-3.8-7.7-2
		C185.3,40.4,184.5,44.3,186.1,47.1z"/>
	<path fill="#B0BA00" d="M199.2,38.1c3.5,2.2,8,0.9,10.1-2.7c2.1-3.7,0.9-8.4-2.6-10.6c-3.5-2.2-8-0.9-10.1,2.7
		C194.5,31.2,195.7,36,199.2,38.1z"/>
	<path fill="#FF0000" d="M208.7,19.3c5.3-0.5,9.3-5.2,8.8-10.5c-0.5-5.3-5.2-9.3-10.5-8.8c-5.3,0.5-9.3,5.2-8.8,10.5
		C198.6,15.9,203.3,19.8,208.7,19.3z"/>
</g>
<path d="M95.6,17.3c0.2-2.7-0.2-3.9-2.2-3.9c-2.5,0-4.2,1-4.7,6.3c-0.5,5.2,0.7,6.5,3,6.5c2.4,0,3.4-1.2,3.8-4.2h3.1
	c-0.3,3.6-1.7,6.3-7.3,6.3c-5.5,0-7.5-3.6-7.1-8.4c0.4-4.8,3.1-8.4,8.5-8.4c2.1,0,4.3,0.3,6.3,1l-0.4,4.8H95.6z"/>
<path d="M111.6,25L111.6,25c-1.6,2.6-3.6,3.3-5.9,3.3c-2.8,0-4.8-1.6-4.6-4.7c0.2-2.7,2.2-5.3,7.7-5.3h2.8l0.1-1.5
	c0.2-2.4-0.3-3.4-2.6-3.4c-2.2,0-2.8,1.4-3,2.9h-3.6c0.2-2.2,1.4-4.8,6.7-4.8c5.2,0,6.7,1.5,6.4,4.8c-0.1,1.7-0.8,6.3-0.9,7.8
	c-0.1,1.5,0,2,1.6,2h0.8l-0.1,1.6h-5.8L111.6,25z M109.6,20.1c-2.2,0-4.3,0.8-4.6,3.4c-0.1,1.6,0.8,2.6,2.2,2.6c3.1,0,3.8-3.1,4.2-6
	H109.6z"/>
<path d="M118.7,12c3.1-0.4,3.9-1.3,4.4-4.6h2.8l-0.4,4.6h5.2l-0.2,1.9h-5.2l-0.9,10.3c-0.1,1.4,0.3,2,1.5,2c1.2,0,1.7-0.6,1.9-2
	l0.1-1.7h2.7l-0.1,0.7c-0.3,3.5-2.3,5-5.4,5c-3.3,0-5-1.1-4.7-5.1l0.8-9.3h-2.9L118.7,12z"/>
<path d="M136.6,20.1c-0.2,2.2-0.5,6.2,3.5,6.2c2.4,0,3.5-1.3,3.7-3.7h3.3c-0.3,2.8-2.1,5.6-7.6,5.6c-5.5,0-7.5-3.6-7.1-8.4
	c0.4-4.8,3.1-8.4,8.5-8.4c5.2,0,7.2,2.4,6.7,7.9l-0.1,0.7H136.6z M143.9,18.2c0.2-2.7-0.2-5-3-5s-3.8,2.2-4,5H143.9z"/>
<path d="M150.5,12c1.7,0,4.6-0.2,6.2-0.4l-0.3,3.6h0.1c1.3-2.6,3.3-3.7,5.9-3.7c3.2,0,5.5,1.4,5.2,4.9l-0.7,7.7c-0.1,1.5,0,2,1.6,2
	h0.8l-0.1,1.6h-8.9l0.1-1.6h0.5c1.7,0,1.9-0.6,2-2l0.6-6.7c0.2-2.3-0.8-3.3-2.6-3.3c-2.4,0-4.1,1.7-4.4,4.7l-0.5,5.3
	c-0.1,1.5,0,2,1.6,2h0.5l-0.1,1.6h-9.1l0.1-1.6h1c1.7,0,1.9-0.6,2-2l0.7-7.9c0.2-2.2,0.1-2.5-1.2-2.5h-1.2L150.5,12z"/>
<path d="M171.3,12c3.1-0.4,3.9-1.3,4.4-4.6h2.8l-0.4,4.6h5.2l-0.2,1.9H178l-0.9,10.3c-0.1,1.4,0.3,2,1.5,2c1.2,0,1.7-0.6,1.9-2
	l0.1-1.7h2.7l-0.1,0.7c-0.3,3.5-2.3,5-5.4,5c-3.3,0-5-1.1-4.7-5.1l0.8-9.3h-2.9L171.3,12z"/>
<g>
	<path d="M5.7,45.8c-0.2,0.5-0.4,1-0.8,1.3c-0.6,0.7-1.4,1.1-2.4,1.1c-0.8,0-1.5-0.3-1.9-0.8c-0.4-0.5-0.7-1.2-0.7-2
		c0-0.6,0.1-1.1,0.4-1.7c0.3-0.6,0.6-1,1-1.4c0.6-0.5,1.3-0.8,2.2-0.8c0.7,0,1.3,0.3,1.8,0.7c0.5,0.5,0.7,1.2,0.7,2
		C6,44.8,5.9,45.3,5.7,45.8z M4.6,42.7c-0.3-0.4-0.7-0.5-1.3-0.5c-0.7,0-1.3,0.3-1.8,0.9c-0.5,0.6-0.7,1.3-0.7,2.2
		C0.9,46,1,46.6,1.4,47c0.3,0.4,0.8,0.6,1.3,0.6c0.8,0,1.3-0.3,1.8-1c0.4-0.6,0.6-1.4,0.6-2.4C5.1,43.6,4.9,43.1,4.6,42.7z"/>
	<path d="M12.4,48.2h-0.6C10.4,45.7,9.5,44,9,42.9L8,48.2H7.3l1.2-6.5h0.5l2.9,5.3l0.9-5.3h0.7L12.4,48.2z"/>
	<path d="M19.5,42.3h-1.9l-1.1,5.9h-0.8l1.1-5.9H15l0.1-0.6h4.6L19.5,42.3z"/>
	<path d="M25.4,48.2h-0.7c-0.3-2.2-0.4-3.9-0.5-5.2c-0.6,1.5-1.4,3.2-2.4,5.2h-0.7l-0.5-6.5l0.8-0.1c0.2,2.5,0.3,4.3,0.4,5.4
		c0.6-1.5,1.4-3.3,2.4-5.3h0.6c0.2,2.2,0.4,4,0.4,5.3c0.7-1.6,1.5-3.4,2.5-5.4l0.7,0.2L25.4,48.2z"/>
	<path d="M30,48.2h-0.8l1.2-6.5h0.8L30,48.2z"/>
	<path d="M35,44.6l1.8,3.3l-0.8,0.3l-1.9-3.5l-0.6,3.4h-0.8l1.2-6.5h0.8l-0.5,2.9l3-3l0.5,0.4L35,44.6z"/>
	<path d="M40.8,44.6l1.8,3.3l-0.8,0.3l-1.9-3.5l-0.6,3.4h-0.8l1.2-6.5h0.8L40,44.5l3-3l0.5,0.4L40.8,44.6z"/>
	<path d="M48.3,42.3h-2.1l-0.4,2.2h2L47.7,45h-2l-0.5,2.5h2.4l-0.1,0.6h-3.2l1.2-6.5h2.9L48.3,42.3z"/>
	<path d="M52.8,48.2h-3.2l1.2-6.5h0.8l-1.1,5.9h2.4L52.8,48.2z"/>
	<path d="M58.4,42.3h-2.1l-0.4,2.2h2L57.9,45h-2l-0.5,2.5h2.4l-0.1,0.6h-3.2l1.2-6.5h2.9L58.4,42.3z"/>
	<path d="M64.6,48.2h-0.6c-1.4-2.4-2.3-4.2-2.8-5.2l-0.9,5.2h-0.7l1.2-6.5h0.5l2.9,5.3l0.9-5.3h0.7L64.6,48.2z"/>
	<path d="M76.6,48.2h-0.8l1.1-5.3c-1.5,2.4-2.6,4.1-3.4,5.3h-0.3c-0.5-2-0.9-3.8-1.3-5.3L71,48.2h-0.7l1.2-6.5h0.9
		c0.4,1.4,0.8,3.1,1.3,5.3c1.2-1.9,2.3-3.7,3.4-5.3h0.8L76.6,48.2z"/>
	<path d="M83.3,42.3h-2.1l-0.4,2.2h2L82.7,45h-2l-0.5,2.5h2.4l-0.1,0.6h-3.2l1.2-6.5h2.9L83.3,42.3z"/>
	<path d="M89.1,42.3h-1.9l-1.1,5.9h-0.8l1.1-5.9h-1.9l0.1-0.6h4.6L89.1,42.3z"/>
	<path d="M96.4,45c-0.5,0.4-1.2,0.6-2,0.6l0.1-0.6h0.1c0.5,0,0.9-0.1,1.2-0.4c0.3-0.3,0.4-0.7,0.4-1.2c0-0.5-0.2-0.8-0.6-1
		c-0.2-0.1-0.4-0.1-0.8-0.1h-0.3l-1.1,5.9h-0.8l1.2-6.5h1.1c0.7,0,1.2,0.1,1.5,0.4c0.4,0.3,0.6,0.8,0.6,1.4
		C97.2,44,96.9,44.6,96.4,45z"/>
	<path d="M101.1,48.2l-0.2-1.9h-2.2l-1,1.9h-0.8l3.6-6.5h0.6l1,6.5H101.1z M100.5,42.8c-0.4,0.7-0.9,1.6-1.5,2.8h1.8
		C100.7,44.5,100.6,43.6,100.5,42.8z"/>
	<path d="M107.1,42.4c-0.3-0.2-0.7-0.3-0.9-0.3c-0.3,0-0.6,0.1-0.8,0.3c-0.2,0.2-0.3,0.4-0.3,0.7c0,0.3,0.1,0.5,0.3,0.8
		c0,0.1,0.3,0.4,0.7,0.8c0.6,0.6,0.9,1.2,0.9,1.7c0,0.5-0.2,1-0.6,1.3c-0.4,0.3-0.9,0.5-1.5,0.5c-0.6,0-1.1-0.2-1.6-0.6l0.3-0.5
		c0.5,0.4,0.9,0.5,1.3,0.5c0.3,0,0.6-0.1,0.8-0.3c0.2-0.2,0.3-0.5,0.3-0.8c0-0.3-0.1-0.7-0.3-1c0,0-0.3-0.3-0.7-0.9
		c-0.5-0.6-0.8-1.1-0.8-1.6c0-0.5,0.2-0.9,0.5-1.2c0.4-0.3,0.8-0.5,1.4-0.5c0.5,0,1,0.2,1.4,0.5L107.1,42.4z"/>
	<path d="M112.2,42.4c-0.3-0.2-0.7-0.3-0.9-0.3c-0.3,0-0.6,0.1-0.8,0.3c-0.2,0.2-0.3,0.4-0.3,0.7c0,0.3,0.1,0.5,0.3,0.8
		c0,0.1,0.3,0.4,0.7,0.8c0.6,0.6,0.9,1.2,0.9,1.7c0,0.5-0.2,1-0.6,1.3c-0.4,0.3-0.9,0.5-1.5,0.5c-0.6,0-1.1-0.2-1.6-0.6l0.3-0.5
		c0.5,0.4,0.9,0.5,1.3,0.5c0.3,0,0.6-0.1,0.8-0.3c0.2-0.2,0.3-0.5,0.3-0.8c0-0.3-0.1-0.7-0.3-1c0,0-0.3-0.3-0.7-0.9
		c-0.5-0.6-0.8-1.1-0.8-1.6c0-0.5,0.2-0.9,0.5-1.2c0.4-0.3,0.8-0.5,1.4-0.5c0.5,0,1,0.2,1.4,0.5L112.2,42.4z"/>
	<path d="M114.7,48.2h-0.8l1.2-6.5h0.8L114.7,48.2z"/>
	<path d="M121.3,42.3h-2.1l-0.4,2.2h2l-0.1,0.6h-2l-0.5,2.5h2.4l-0.1,0.6h-3.2l1.2-6.5h2.9L121.3,42.3z"/>
</g>
</svg>
