<?xml version="1.0" encoding="utf-8"?>
<!-- Generator: Adobe Illustrator 23.0.4, SVG Export Plug-In . SVG Version: 6.00 Build 0)  -->
<svg version="1.2" baseProfile="tiny" id="Laag_1" xmlns="http://www.w3.org/2000/svg" xmlns:xlink="http://www.w3.org/1999/xlink"
	 x="0px" y="0px" viewBox="0 0 206.9 70.9" xml:space="preserve">
<g>
	<path fill="#6F3B8D" d="M135.5,55.5c-0.6,1.1-0.5,2.7,0.3,3.6c0.8,0.9,2,0.7,2.6-0.5c0.6-1.1,0.5-2.7-0.3-3.6
		C137.3,54.2,136.1,54.4,135.5,55.5z"/>
	<path fill="#6F3B8D" d="M141.8,60c-0.6,1.6,0,3.5,1.2,4.2c1.2,0.7,2.7,0,3.3-1.5c0.6-1.6,0-3.5-1.2-4.2
		C143.8,57.7,142.3,58.4,141.8,60z"/>
	<path fill="#6F3B8D" d="M150.1,63.5c-0.3,2.2,0.9,4.2,2.7,4.6c1.8,0.4,3.4-1.1,3.7-3.3c0.3-2.2-0.9-4.2-2.7-4.6
		C152,59.9,150.4,61.3,150.1,63.5z"/>
	<path fill="#6F3B8D" d="M161.1,65c0.4,2.7,2.6,4.5,4.9,4.1c2.3-0.4,3.9-3,3.5-5.7c-0.4-2.7-2.6-4.5-4.9-4.1
		C162.2,59.7,160.7,62.3,161.1,65z"/>
	<path fill="#6F3B8D" d="M173.9,62.4c1.6,2.9,5.1,3.8,7.7,2c2.6-1.8,3.4-5.6,1.8-8.5c-1.6-2.9-5.1-3.8-7.7-2
		C173.1,55.7,172.3,59.5,173.9,62.4z"/>
	<path fill="#B0BA00" d="M187,53.4c3.5,2.2,8,0.9,10.1-2.7c2.1-3.7,0.9-8.4-2.6-10.6c-3.5-2.2-8-0.9-10.1,2.7
		C182.3,46.5,183.4,51.2,187,53.4z"/>
	<path fill="#FF0000" d="M196.4,34.6c5.3-0.5,9.3-5.2,8.8-10.5c-0.5-5.3-5.2-9.3-10.5-8.8c-5.3,0.5-9.3,5.2-8.8,10.5
		C186.4,31.1,191.1,35,196.4,34.6z"/>
</g>
<g>
	<path d="M103.6,13.2c-0.3,3.3-2.3,5.1-5.6,5.1c-3.8,0-6-2.6-5.6-6.7c0.4-4.1,3.2-6.8,7-6.8c1.9,0,3.5,0.3,4.7,0.9l-0.3,3.6h-2.5
		c0.2-2-0.3-2.9-1.8-2.9c-2.2,0-3.3,1.8-3.7,5.6c-0.3,2.9,0.7,4.5,2.6,4.5c1.6,0,2.5-1.1,2.8-3.3c0-0.1,0-0.1,0-0.2h2.4
		C103.6,13.1,103.6,13.2,103.6,13.2z"/>
	<path d="M112.2,4.8c3.9,0,5,1.2,4.7,4.4l-0.5,5.1c-0.2,1.6-0.1,2,1.9,2l-0.1,1.5h-4.9l0.1-1.8c-1.2,1.6-2.5,2.3-4.3,2.3
		c-2.6,0-4-1.5-3.8-3.6c0.3-3,2.4-4.3,6.5-4.3h1.8l0.1-1.2c0.2-1.8-0.4-2.8-1.8-2.8c-1.6,0-2.5,0.8-2.7,2.4h-2.9
		C106.7,6.2,108.6,4.8,112.2,4.8z M111.9,11.9c-2,0-3.2,0.9-3.3,2.4c-0.1,1.4,0.5,2.2,1.7,2.2c1.6,0,2.8-1.3,3.1-3.7l0.1-0.9H111.9z
		"/>
	<path d="M119.7,6.7l0.1-1.4c2.1-0.2,3.1-1.2,3.3-3.4c0,0,0-0.1,0-0.1h2.3l-0.3,3.5h3.3l-0.1,1.4H125l-0.7,7.4
		c-0.2,1.7-0.1,2.5,1.1,2.5c1,0,1.5-0.7,1.7-2.2c0-0.2,0-0.4,0-0.6h2.1c0,0.2,0,0.4,0,0.6c-0.3,2.7-1.7,3.9-4.6,3.9
		c-2.8,0-3.6-1.2-3.3-4.2l0.7-7.4H119.7z"/>
	<path d="M133.9,11.8c0,0.2-0.1,0.4-0.1,0.5c-0.3,2.9,0.8,4.4,2.7,4.4c1.5,0,2.7-1.1,2.9-2.9h2.8c-0.5,2.9-2.6,4.4-6,4.4
		c-4,0-6-2.4-5.6-6.9c0.4-4.2,2.9-6.6,7-6.6c3.7,0,5.5,2.1,5.1,6.1c0,0.3-0.1,0.6-0.1,0.9H133.9z M139.6,10.1
		c0.2-2.5-0.6-3.8-2.3-3.8c-1.6,0-2.9,1.5-3.2,4h5.5C139.6,10.2,139.6,10.1,139.6,10.1z"/>
	<path d="M152.3,16.3c1.7-0.1,1.8-0.4,2-2l0.3-3.6c0.3-2.6-0.1-4-2-4c-1.7,0-2.9,1.5-3.2,4.5l-0.3,3.1c-0.1,1.5-0.1,1.9,1.6,2
		l-0.1,1.5c-1.3-0.1-7.3,0-7.3,0l0.1-1.5c2.2-0.1,2.4-0.3,2.6-2.1l0.5-5.5c0.2-1.7,0.1-2-2.2-2.1l0.1-1.4h1.6c0.9,0,2-0.1,3.3-0.2
		l-0.1,2.5c1.3-1.9,2.8-2.8,4.8-2.8c3,0,4.2,1.5,3.9,4.7l-0.5,4.8c-0.2,1.7-0.1,1.9,1.9,2.1l-0.1,1.5h-7.1L152.3,16.3z"/>
	<path d="M160.8,6.7l0.1-1.4c2.1-0.2,3.1-1.2,3.3-3.4c0,0,0-0.1,0-0.1h2.3l-0.3,3.5h3.3l-0.1,1.4h-3.3l-0.7,7.4
		c-0.2,1.7-0.1,2.5,1.1,2.5c1,0,1.5-0.7,1.7-2.2c0-0.2,0-0.4,0-0.6h2.1c0,0.2,0,0.4,0,0.6c-0.3,2.7-1.7,3.9-4.6,3.9
		c-2.8,0-3.6-1.2-3.3-4.2l0.7-7.4H160.8z"/>
	<path d="M1.7,40.8l0.1-1.5c2.2,0,2.4-0.4,2.6-2.1l1.1-11.7c0.2-1.7,0.1-2-2.2-2.1l0.1-1.4h1.6c0.5,0,1.9-0.1,3.9-0.2L7.5,37.3
		c-0.1,1.5-0.1,2,1.4,2l-0.1,1.5H1.7z M10.9,31.4c0.6-0.5,0.9-0.8,0.9-1.1c0-0.5-0.3-0.6-1.2-0.6l0.1-1.4c1,0.1,2.1,0.1,3.1,0.1
		c1,0,2,0,3.2-0.1l-0.1,1.4c-1.2,0-2.3,0.6-3.6,1.8l-1.9,1.8l2.8,4.1c0.7,1.1,1.2,1.9,2.7,1.9l-0.1,1.5h-6.5l0.1-1.5
		c0.7,0,1-0.2,1.1-0.4c0-0.2-0.1-0.5-0.4-1l-2.7-4.2L10.9,31.4z"/>
	<path d="M17.3,39.3c2.2,0,2.4-0.4,2.6-2.1l0.5-5.5c0.2-1.7,0.1-2-2.2-2.1l0.1-1.4H20c0.5,0,1.8-0.1,4-0.2L23,37.3
		c-0.2,1.7-0.1,2,2,2.1l-0.1,1.5h-7.8L17.3,39.3z M22.8,22.1c1,0,1.8,0.8,1.7,1.8c-0.1,1-1,1.8-2,1.8c-1.1,0-1.8-0.8-1.7-1.8
		C20.9,22.9,21.8,22.1,22.8,22.1z"/>
	<path d="M34.5,39.3c1.7-0.1,1.8-0.4,2-2l0.3-3.6c0.3-2.6-0.1-4-2-4c-1.7,0-2.9,1.5-3.2,4.5l-0.3,3.1c-0.1,1.5-0.1,1.9,1.6,2
		l-0.1,1.5h-7.3l0.1-1.5c2.2-0.1,2.4-0.3,2.6-2.1l0.5-5.5c0.2-1.7,0.1-2-2.2-2.1l0.1-1.4h1.6c0.9,0,2-0.1,3.3-0.2l-0.1,2.5
		c1.3-1.9,2.8-2.8,4.8-2.8c3,0,4.2,1.5,3.9,4.7l-0.5,4.8c-0.2,1.7-0.1,1.9,1.9,2.1l-0.1,1.5h-7.1L34.5,39.3z"/>
	<path d="M50.7,23.6l0.1-1.4h1.8c0.7,0,1.9-0.1,3.6-0.2l-1.5,15.5c-0.2,1.7-0.1,2.2,2.1,2.2L56.8,41L52,41l0.1-2.3
		c-1.2,1.8-2.6,2.6-4.5,2.6c-3.1,0-5-2.4-4.6-6.5c0.4-4.4,2.8-7,5.8-7c1.5,0,2.8,0.7,3.6,1.8l0.4-4.1C53,23.8,52.9,23.6,50.7,23.6z
		 M49.7,29.8c-1.8,0-2.8,1.6-3.1,4.8c-0.3,3.2,0.6,4.8,2.4,4.8c1.9,0,2.9-1.5,3.2-4.6C52.4,31.5,51.5,29.8,49.7,29.8z"/>
	<path d="M61.6,34.8c0,0.2-0.1,0.4-0.1,0.5c-0.3,2.9,0.8,4.4,2.7,4.4c1.5,0,2.7-1.1,2.9-2.9h2.8c-0.5,2.9-2.6,4.4-6,4.4
		c-4,0-6-2.4-5.6-6.9c0.4-4.2,2.9-6.6,7-6.6c3.7,0,5.5,2.1,5.1,6.1c0,0.3-0.1,0.6-0.1,0.9H61.6z M67.3,33.1c0.2-2.5-0.6-3.8-2.3-3.8
		c-1.6,0-2.9,1.5-3.2,4h5.5C67.3,33.2,67.3,33.1,67.3,33.1z"/>
	<path d="M71.1,39.3c2.2,0,2.4-0.4,2.6-2.1l0.5-5.5c0.2-1.7,0.1-2-2.2-2.1l0.1-1.4h1.6c0.9,0,2-0.1,3.2-0.2l-0.1,2.3
		c1.4-1.8,2.8-2.5,4.7-2.5c0.5,0,1.1,0.1,2,0.3l-0.4,3.8H81c0-1.3-0.3-2-1.2-2c-1.5,0-2.4,1.5-2.7,4.6l-0.3,2.7
		c-0.2,1.8,0,2.1,2.6,2.1l-0.1,1.5h-8.3L71.1,39.3z"/>
	<path d="M91.1,27.8c3.9,0,6,2.4,5.5,6.7s-2.9,6.7-6.8,6.7c-3.9,0-6-2.4-5.5-6.7C84.7,30.3,87.2,27.8,91.1,27.8z M90.9,29.5
		c-1.9,0-3,1.7-3.3,5.1C87.3,38,88,39.6,90,39.6c1.9,0,3-1.6,3.3-4.9C93.6,31.2,92.9,29.5,90.9,29.5z"/>
	<path d="M96.5,44.9c2.2,0,2.3-0.3,2.5-2l1.1-11.3c0.2-1.7,0.1-1.9-2.1-2l0.1-1.4h1.9c0.9,0,1.9-0.1,3-0.2l-0.1,2.4
		c1.2-1.8,2.6-2.6,4.5-2.6c3.2,0,4.9,2.5,4.5,7c-0.4,4.2-2.5,6.5-5.7,6.5c-1.6,0-2.9-0.6-3.6-1.8l-0.3,3.4c-0.2,1.7-0.1,2,2.2,2
		l-0.1,1.5h-7.8L96.5,44.9z M105.3,39.3c1.7,0,2.8-1.5,3.1-4.3c0.3-3.3-0.5-4.9-2.5-4.9c-1.8,0-2.8,1.5-3.1,4.5
		C102.5,37.7,103.4,39.3,105.3,39.3z"/>
	<path d="M117.9,41l-2.6-9.1c-0.4-1.4-0.5-2.1-1.9-2.2l0.1-1.5c1,0.1,2.1,0.1,3.2,0.1c1,0,2.2,0,3.5-0.1l-0.1,1.5
		c-0.1,0-0.2,0-0.4,0c-0.9,0-1.4,0.2-1.4,0.8c0,0.3,0.1,0.8,0.3,1.5l1.6,6.4l2.8-6.6c0.3-0.6,0.4-1.1,0.5-1.3
		c0.1-0.6-0.4-0.8-1.4-0.8c-0.1,0-0.2,0-0.2,0l0.1-1.5c0.8,0.1,1.7,0.1,2.6,0.1c0.9,0,1.9,0,3-0.1l-0.1,1.5
		c-1.3,0.1-1.6,0.8-2.2,2.2l-4.3,9.1H117.9z"/>
	<path d="M134.6,27.8c3.9,0,5,1.2,4.7,4.4l-0.5,5.1c-0.2,1.6-0.1,2,1.9,2l-0.1,1.5h-4.9l0.1-1.8c-1.2,1.6-2.5,2.3-4.3,2.3
		c-2.6,0-4-1.5-3.8-3.6c0.3-3,2.4-4.3,6.5-4.3h1.8l0.1-1.2c0.2-1.8-0.4-2.8-1.8-2.8c-1.6,0-2.5,0.8-2.7,2.4h-2.9
		C129.1,29.2,131,27.8,134.6,27.8z M134.4,34.9c-2,0-3.2,0.9-3.3,2.4c-0.1,1.4,0.5,2.2,1.7,2.2c1.6,0,2.8-1.3,3.1-3.7l0.1-0.9H134.4
		z"/>
	<path d="M150.2,39.3c1.7-0.1,1.8-0.4,2-2l0.3-3.6c0.3-2.6-0.1-4-2-4c-1.7,0-2.9,1.5-3.2,4.5l-0.3,3.1c-0.1,1.5-0.1,1.9,1.6,2
		l-0.1,1.5h-7.3l0.1-1.5c2.2-0.1,2.4-0.3,2.6-2.1l0.5-5.5c0.2-1.7,0.1-2-2.2-2.1l0.1-1.4h1.6c0.9,0,2-0.1,3.3-0.2l-0.1,2.5
		c1.3-1.9,2.8-2.8,4.8-2.8c3,0,4.2,1.5,3.9,4.7l-0.5,4.8c-0.2,1.7-0.1,1.9,1.9,2.1l-0.1,1.5H150L150.2,39.3z"/>
	<path d="M159,32.5c0.3-2.8,2.5-4.7,6.2-4.7c1,0,1.9,0.2,2.8,0.5c1.3-0.1,2.1-0.1,2.5-0.1h1.4l-0.2,1.6l-2.6-0.1
		c0.6,0.6,1,1.6,0.9,2.9c-0.2,1.8-1.4,3.3-3.5,4.1c-1.3,0.5-2.3,0.4-3,0.5c-0.9,0.1-1.3,0.3-1.3,1c0,0.4,0.2,0.8,0.6,0.9
		c0.8,0.3,1.9,0.2,3.2,0.3c2.7,0.3,4,1.5,3.9,3.4c-0.2,2.5-2.8,4-6.9,4c-3.8,0-5.8-1.6-5.6-3.7c0.2-1.6,1.5-2.6,4.2-3.3
		c-1.5-0.4-2.2-0.8-2.1-1.7c0.1-0.8,0.9-1.3,2.5-1.6C159.7,35.8,158.8,34.5,159,32.5z M166.6,43c0.1-1.5-0.8-2.4-2.8-2.4
		c-2,0-3.2,0.9-3.3,2.4c-0.1,1.5,0.8,2.4,2.8,2.4C165.3,45.4,166.5,44.6,166.6,43z M164.1,35.6c1.3,0,2.2-1.1,2.4-3.1
		c0.2-2-0.5-3.1-1.8-3.1s-2.2,1.1-2.4,3.1C162.1,34.5,162.7,35.6,164.1,35.6z"/>
</g>
<g>
	<path d="M22.4,56.5c0.2,1.7,0.4,3.5,0.5,5.5h0c0.8-2,1.6-3.8,2.4-5.5l0.6,0.1L23,63h-0.7c-0.2-1.7-0.4-3.4-0.5-5.3h0
		c-0.8,1.9-1.6,3.6-2.3,5.3h-0.7l-0.7-6.4l0.8-0.2c0.2,1.8,0.3,3.6,0.5,5.5h0c0.8-2,1.6-3.7,2.4-5.5H22.4z"/>
	<path d="M26.7,59.6c0.3-1.8,1.8-3.2,3.5-3.2s2.7,1.4,2.4,3.2c-0.3,1.9-1.7,3.5-3.5,3.5S26.4,61.6,26.7,59.6z M31.7,59.6
		c0.2-1.2-0.2-2.6-1.6-2.6s-2.3,1.4-2.5,2.6c-0.2,1.3,0.1,2.8,1.6,2.8S31.5,60.9,31.7,59.6z"/>
	<path d="M35.2,56.5h1.7c1,0,1.6,0.5,1.4,1.7c-0.2,0.9-0.7,1.5-1.3,1.9l1,2.7l-0.9,0.3l-0.9-2.8h-0.9L35,63h-0.8L35.2,56.5z
		 M35.5,59.7H36c1,0,1.4-0.8,1.5-1.4c0.1-0.8-0.3-1.1-0.8-1.1h-0.7L35.5,59.7z"/>
	<path d="M42.8,56.5c2.4,0,3,1.5,2.7,3c-0.4,2.1-1.8,3.4-3.9,3.4h-1.8l1.1-6.5H42.8z M40.7,62.3h0.9c1.7,0,2.6-0.9,2.9-2.8
		c0.2-1.4-0.3-2.4-1.9-2.4h-1.1L40.7,62.3z"/>
	<path d="M50.8,57.2h-2.1l-0.3,2.1h2.1l-0.1,0.6h-2.1l-0.4,2.4h2.5L50.2,63h-3.3l1.1-6.5h2.9L50.8,57.2z"/>
	<path d="M57.2,63h-0.6c-1-1.7-2.7-4.6-3-5.1h0L52.7,63h-0.7l1.1-6.5h0.6c1,1.7,2.7,4.5,3,5.1h0l0.9-5.1h0.7L57.2,63z"/>
	<path d="M67.6,56.5c0.2,1.7,0.4,3.5,0.5,5.5h0c0.8-2,1.6-3.8,2.4-5.5l0.6,0.1L68.3,63h-0.7c-0.2-1.7-0.4-3.4-0.5-5.3h0
		c-0.8,1.9-1.6,3.6-2.3,5.3H64l-0.7-6.4l0.8-0.2c0.2,1.8,0.3,3.6,0.5,5.5h0c0.8-2,1.6-3.7,2.4-5.5H67.6z"/>
	<path d="M71.7,63l1.1-6.5h0.8L72.6,63H71.7z"/>
	<path d="M78.8,57.2h-2.1l-0.3,2.1h2.1l-0.1,0.6h-2.1l-0.4,2.4h2.5L78.2,63h-3.3l1.1-6.5h2.9L78.8,57.2z"/>
	<path d="M85.4,56.5l-1.1,6.4c-0.2,1.3-1,1.8-1.7,1.8l0.1-0.5c0.2,0,0.4-0.2,0.5-0.3c0.1-0.2,0.3-0.7,0.4-1l1.1-6.3H85.4z"/>
	<path d="M90.5,57.2h-2.1l-0.3,2.1h2.1L90,59.9H88l-0.4,2.4H90L89.9,63h-3.3l1.1-6.5h2.9L90.5,57.2z"/>
	<path d="M95.2,63l1.1-6.5h1.8c0.9,0,1.5,0.5,1.3,1.3c-0.2,1.1-1,1.5-1.5,1.6l0,0c0.8,0,1.5,0.6,1.3,1.6C99,62.2,98,63,96.8,63H95.2
		z M96.1,62.3h0.8c0.7,0,1.3-0.4,1.4-1.2c0.2-0.9-0.5-1.2-1.2-1.2h-0.7L96.1,62.3z M96.6,59.3H97c0.7,0,1.4-0.5,1.5-1.2
		c0.1-0.6-0.2-0.9-0.9-0.9H97L96.6,59.3z"/>
	<path d="M104.8,57.2h-2.1l-0.3,2.1h2.1l-0.1,0.6h-2.1l-0.4,2.4h2.5l-0.1,0.6h-3.3l1.1-6.5h2.9L104.8,57.2z"/>
	<path d="M111.3,63h-0.6c-1-1.7-2.7-4.6-3-5.1h0l-0.9,5.1h-0.7l1.1-6.5h0.6c1,1.7,2.7,4.5,3,5.1h0l0.9-5.1h0.7L111.3,63z"/>
	<path d="M114.8,63l1-5.8h-1.9l0.1-0.6h4.6l-0.1,0.6h-1.9l-1,5.8H114.8z"/>
</g>
</svg>
